{"title":"​The X-Files S08 Season 8 720p 5.1Ch BluRay ReEnc-DeeJayAhmed","uid":13165693,"size":7938159336,"categoryP":"video","categoryS":"hd___tv_shows","magnet":"?xt=urn:btih:21412d28b159fd65211e7c7e94e3d85a30fac7df&amp;dn=%E2%80%8BThe+X-Files+S08+Season+8+720p+5.1Ch+BluRay+ReEnc-DeeJayAhmed&amp;tr=udp%3A%2F%2Ftracker.leechers-paradise.org%3A6969&amp;tr=udp%3A%2F%2Fzer0day.ch%3A1337&amp;tr=udp%3A%2F%2Fopen.demonii.com%3A1337&amp;tr=udp%3A%2F%2Ftracker.coppersurfer.tk%3A6969&amp;tr=udp%3A%2F%2Fexodus.desync.com%3A6969","seeders":9,"leechers":3,"uploader":"DeeJayPirate","files":44,"time":1452203662,"description":"\nDeeJayAhmed  \nhttps://www.DeeJayAhmed.com\r\r\nKeep Seeding!!=)) \r\nDo Comment On The A/V Quality Considering The Size Of The File..!\r\n\r\nVideo \r\nID : 1 \r\nFormat : AVC \r\nFormat/Info : Advanced Video Codec \r\nFormat profile :    \r\nFormat settings, CABAC : Yes \r\nFormat settings, ReFrames : 8 frames \r\nCodec ID : V_MPEG4/ISO/AVC \r\nDuration : 44mn 42s \r\nBit rate : 948 Kbps \r\nWidth : 1 280 pixels \r\nHeight : 720 pixels \r\nDisplay aspect ratio : 16:9 \r\nFrame rate mode : Constant \r\nFrame rate : 23.976 (24000/1001) fps \r\nColor space : YUV \r\nChroma subsampling : 4:2:0 \r\nBit depth : 8 bits \r\nScan type : Progressive \r\nBits/(Pixel*Frame) : 0.043 \r\nStream size : 303 MiB (83%) \r\nDefault : Yes \r\nForced : No \r\n\r\nAudio \r\nID : 2 \r\nFormat : AAC \r\nFormat/Info : Advanced Audio Codec \r\nFormat profile : HE-AACv2 / HE-AAC / LC \r\nCodec ID : A_AAC \r\nDuration : 44mn 42s \r\nBit rate : 186 Kbps \r\nChannel(s) : 6 channels \r\nChannel(s)_Original : 2 channels / 15 channels / 15 channels \r\nChannel positions : Front: L R / Front: 6, Side: L C R, Back: 6 / Front: 6, Side: L C R, Back: 6 \r\nSampling rate : 48.0 KHz / 48.0 KHz / 24.0 KHz \r\nFrame rate : 23.438 fps (1024 spf) \r\nCompression mode : Lossy \r\nDelay relative to video : 31ms \r\nStream size : 59.5 MiB (16%) \r\nLanguage : English \r\nDefault : Yes \r\nForced : No","torrent":{"xt":"urn:btih:21412d28b159fd65211e7c7e94e3d85a30fac7df","amp;dn":"%E2%80%8BThe+X-Files+S08+Season+8+720p+5.1Ch+BluRay+ReEnc-DeeJayAhmed","amp;tr":["udp%3A%2F%2Ftracker.leechers-paradise.org%3A6969","udp%3A%2F%2Fzer0day.ch%3A1337","udp%3A%2F%2Fopen.demonii.com%3A1337","udp%3A%2F%2Ftracker.coppersurfer.tk%3A6969","udp%3A%2F%2Fexodus.desync.com%3A6969"],"infoHash":"21412d28b159fd65211e7c7e94e3d85a30fac7df","infoHashBuffer":{"type":"Buffer","data":[33,65,45,40,177,89,253,101,33,30,124,126,148,227,216,90,48,250,199,223]},"announce":[],"urlList":[]}}